<svg width="10" height="16" viewBox="0 0 10 16" fill="none" xmlns="http://www.w3.org/2000/svg">
<path d="M3.75 10.8168V10.6818C3.75947 9.80114 3.84706 9.10038 4.01278 8.57955C4.18324 8.05871 4.42472 7.63731 4.73722 7.31534C5.04972 6.99337 5.42614 6.69981 5.86648 6.43466C6.15057 6.25473 6.40625 6.0535 6.63352 5.83097C6.8608 5.60843 7.04072 5.35275 7.1733 5.06392C7.30587 4.77509 7.37216 4.45549 7.37216 4.10511C7.37216 3.68371 7.27273 3.31913 7.07386 3.01136C6.875 2.7036 6.60985 2.46686 6.27841 2.30114C5.9517 2.13068 5.58712 2.04545 5.18466 2.04545C4.82008 2.04545 4.47206 2.12121 4.14062 2.27273C3.80919 2.42424 3.53456 2.66098 3.31676 2.98295C3.09896 3.30019 2.97348 3.70975 2.94034 4.21165H0.78125C0.814394 3.35938 1.02983 2.63968 1.42756 2.05256C1.82528 1.4607 2.35085 1.01326 3.00426 0.710226C3.66241 0.407196 4.3892 0.255681 5.18466 0.255681C6.05587 0.255681 6.81818 0.419034 7.47159 0.745739C8.125 1.06771 8.63163 1.51989 8.99148 2.10227C9.35606 2.67992 9.53835 3.35464 9.53835 4.12642C9.53835 4.65672 9.45549 5.13494 9.28977 5.56108C9.12405 5.98248 8.88731 6.3589 8.57955 6.69034C8.27652 7.02178 7.91193 7.31534 7.4858 7.57102C7.08333 7.82197 6.75663 8.08239 6.50568 8.35227C6.25947 8.62216 6.07955 8.94176 5.96591 9.31108C5.85227 9.6804 5.79072 10.1373 5.78125 10.6818V10.8168H3.75ZM4.82244 15.1349C4.43419 15.1349 4.10038 14.9976 3.82102 14.723C3.54167 14.4437 3.40199 14.1075 3.40199 13.7145C3.40199 13.3262 3.54167 12.9948 3.82102 12.7202C4.10038 12.4408 4.43419 12.3011 4.82244 12.3011C5.20597 12.3011 5.53741 12.4408 5.81676 12.7202C6.10085 12.9948 6.2429 13.3262 6.2429 13.7145C6.2429 13.9749 6.17661 14.214 6.04403 14.4318C5.91619 14.6449 5.74574 14.8153 5.53267 14.9432C5.3196 15.071 5.08286 15.1349 4.82244 15.1349Z" fill="black"/>
</svg>
